G04 ================== begin FILE IDENTIFICATION RECORD ==================*
G04 Layout Name:  C:/Users/user/Desktop/work/allegro/ex2_rlc.brd*
G04 Film Name:    drilldraw*
G04 File Format:  Gerber RS274X*
G04 File Origin:  Cadence Allegro 17.2-S038*
G04 Origin Date:  Thu Jul 11 11:34:52 2019*
G04 *
G04 Layer:  MANUFACTURING/NCLEGEND-1-2*
G04 Layer:  BOARD GEOMETRY/OUTLINE*
G04 Layer:  BOARD GEOMETRY/DESIGN_OUTLINE*
G04 *
G04 Offset:    (0.000 0.000)*
G04 Mirror:    No*
G04 Mode:      Positive*
G04 Rotation:  0*
G04 FullContactRelief:  No*
G04 UndefLineWidth:     0.100*
G04 ================== end FILE IDENTIFICATION RECORD ====================*
%FSLAX25Y25*MOMM*%
%IR0*IPPOS*OFA0.00000B0.00000*MIA0B0*SFA1.00000B1.00000*%
%AMMACRO11*
1,1,.1,-.508,.3175*
20,1,.1,-.508,.3175,-.500282,.405713,0.0*
1,1,.1,-.500282,.405713*
20,1,.1,-.500282,.405713,-.477364,.491246,0.0*
1,1,.1,-.477364,.491246*
20,1,.1,-.477364,.491246,-.439941,.5715,0.0*
1,1,.1,-.439941,.5715*
20,1,.1,-.439941,.5715,-.389151,.644036,0.0*
1,1,.1,-.389151,.644036*
20,1,.1,-.389151,.644036,-.326536,.706651,0.0*
1,1,.1,-.326536,.706651*
20,1,.1,-.326536,.706651,-.254,.757441,0.0*
1,1,.1,-.254,.757441*
20,1,.1,-.254,.757441,-.173746,.794864,0.0*
1,1,.1,-.173746,.794864*
20,1,.1,-.173746,.794864,-.088213,.817782,0.0*
1,1,.1,-.088213,.817782*
20,1,.1,-.088213,.817782,0.0,.8255,0.0*
1,1,.1,0.0,.8255*
20,1,.1,0.0,.8255,.088213,.817782,0.0*
1,1,.1,.088213,.817782*
20,1,.1,.088213,.817782,.173746,.794864,0.0*
1,1,.1,.173746,.794864*
20,1,.1,.173746,.794864,.254,.757441,0.0*
1,1,.1,.254,.757441*
20,1,.1,.254,.757441,.326536,.706651,0.0*
1,1,.1,.326536,.706651*
20,1,.1,.326536,.706651,.389151,.644036,0.0*
1,1,.1,.389151,.644036*
20,1,.1,.389151,.644036,.439941,.5715,0.0*
1,1,.1,.439941,.5715*
20,1,.1,.439941,.5715,.477364,.491246,0.0*
1,1,.1,.477364,.491246*
20,1,.1,.477364,.491246,.500282,.405713,0.0*
1,1,.1,.500282,.405713*
20,1,.1,.500282,.405713,.508,.3175,0.0*
1,1,.1,.508,.3175*
20,1,.1,.508,.3175,.508,-.3175,0.0*
1,1,.1,.508,-.3175*
20,1,.1,.508,-.3175,.500282,-.405713,0.0*
1,1,.1,.500282,-.405713*
20,1,.1,.500282,-.405713,.477364,-.491246,0.0*
1,1,.1,.477364,-.491246*
20,1,.1,.477364,-.491246,.439941,-.5715,0.0*
1,1,.1,.439941,-.5715*
20,1,.1,.439941,-.5715,.389151,-.644036,0.0*
1,1,.1,.389151,-.644036*
20,1,.1,.389151,-.644036,.326536,-.706651,0.0*
1,1,.1,.326536,-.706651*
20,1,.1,.326536,-.706651,.254,-.757441,0.0*
1,1,.1,.254,-.757441*
20,1,.1,.254,-.757441,.173746,-.794864,0.0*
1,1,.1,.173746,-.794864*
20,1,.1,.173746,-.794864,.088213,-.817782,0.0*
1,1,.1,.088213,-.817782*
20,1,.1,.088213,-.817782,0.0,-.8255,0.0*
1,1,.1,0.0,-.8255*
20,1,.1,0.0,-.8255,-.088213,-.817782,0.0*
1,1,.1,-.088213,-.817782*
20,1,.1,-.088213,-.817782,-.173746,-.794864,0.0*
1,1,.1,-.173746,-.794864*
20,1,.1,-.173746,-.794864,-.254,-.757441,0.0*
1,1,.1,-.254,-.757441*
20,1,.1,-.254,-.757441,-.326536,-.706651,0.0*
1,1,.1,-.326536,-.706651*
20,1,.1,-.326536,-.706651,-.389151,-.644036,0.0*
1,1,.1,-.389151,-.644036*
20,1,.1,-.389151,-.644036,-.439941,-.5715,0.0*
1,1,.1,-.439941,-.5715*
20,1,.1,-.439941,-.5715,-.477364,-.491246,0.0*
1,1,.1,-.477364,-.491246*
20,1,.1,-.477364,-.491246,-.500282,-.405713,0.0*
1,1,.1,-.500282,-.405713*
20,1,.1,-.500282,-.405713,-.508,-.3175,0.0*
1,1,.1,-.508,-.3175*
20,1,.1,-.508,-.3175,-.508,.3175,0.0*
1,1,.1,-.508,.3175*
%
%ADD11MACRO11*%
%AMMACRO12*
1,1,.1,.635,0.0*
20,1,.1,.635,0.0,.3175,.549926,0.0*
1,1,.1,.3175,.549926*
20,1,.1,.3175,.549926,-.3175,.549926,0.0*
1,1,.1,-.3175,.549926*
20,1,.1,-.3175,.549926,-.635,0.0,0.0*
1,1,.1,-.635,0.0*
20,1,.1,-.635,0.0,-.3175,-.549926,0.0*
1,1,.1,-.3175,-.549926*
20,1,.1,-.3175,-.549926,.3175,-.549926,0.0*
1,1,.1,.3175,-.549926*
20,1,.1,.3175,-.549926,.635,0.0,0.0*
1,1,.1,.635,0.0*
%
%ADD12MACRO12*%
%AMMACRO10*
1,1,.1,-.666,-.952*
20,1,.1,-.666,-.952,.667,.953,0.0*
1,1,.1,.667,.953*
1,1,.1,-.666,.953*
20,1,.1,-.666,.953,.667,-.952,0.0*
1,1,.1,.667,-.952*
%
%ADD10MACRO10*%
%ADD13C,.1*%
G75*
%LPD*%
G75*
G54D10*
X508000Y508000D03*
Y4508500D03*
X6477000Y508000D03*
Y4508500D03*
X8507500Y366000D03*
G54D11*
X1460500Y1778000D03*
X2476500D03*
X4508500Y1841500D03*
Y2857500D03*
X8507500Y1001000D03*
G54D12*
X1270000Y3048000D03*
Y3302000D03*
X5715000Y2540000D03*
Y2286000D03*
X8507500Y1636000D03*
G54D13*
G01X0Y0D02*
Y5000000D01*
X7000000D01*
Y0D01*
X0D01*
G01X7366000Y48500D02*
Y3873500D01*
X19961900D01*
Y48500D01*
X7366000D01*
G01Y683500D02*
X19961900D01*
G01X7366000Y1318500D02*
X19961900D01*
G01X7645400Y2112200D02*
Y2429700D01*
X7795000D01*
G01X7739900Y2276200D02*
X7645400D01*
G01X7987900Y2429700D02*
X8082300D01*
G01X8035100D02*
Y2112200D01*
G01X7987900D02*
X8082300D01*
G01X8373600Y2270900D02*
X8452400D01*
Y2175700D01*
X8428700Y2143900D01*
X8401200Y2122800D01*
X8361800Y2112200D01*
X8322400Y2122800D01*
X8294900Y2143900D01*
X8271300Y2175700D01*
X8255500Y2212700D01*
X8247600Y2255100D01*
Y2292100D01*
X8255500Y2323900D01*
X8271300Y2360900D01*
X8294900Y2392700D01*
X8318500Y2413800D01*
X8350000Y2429700D01*
X8377600D01*
X8409000Y2419100D01*
X8432700Y2397900D01*
G01X8578300Y2429700D02*
Y2202200D01*
X8594000Y2154500D01*
X8625500Y2122800D01*
X8664900Y2112200D01*
X8704300Y2122800D01*
X8735800Y2154500D01*
X8751500Y2202200D01*
Y2429700D01*
G01X8901100Y2112200D02*
Y2429700D01*
X8999500D01*
X9031000Y2413800D01*
X9050700Y2392700D01*
X9058500Y2350300D01*
X9050700Y2308000D01*
X9027000Y2281500D01*
X8999500Y2265700D01*
X8901100D01*
G01X8999500D02*
X9058500Y2112200D01*
G01X9373400D02*
X9216000D01*
Y2429700D01*
X9373400D01*
G01X9310400Y2276200D02*
X9216000D01*
G01X7366000Y2588500D02*
X19961900D01*
G01X7366000Y1953500D02*
X19961900D01*
G01X7366000Y3223500D02*
X19961900D01*
G01X9314400Y2747200D02*
X9412800Y3064700D01*
X9511200Y2747200D01*
G01X9475800Y2858300D02*
X9349800D01*
G01X9649000Y3064700D02*
Y2747200D01*
X9806400D01*
G01X9963900Y3064700D02*
Y2747200D01*
X10121300D01*
G01X10585800Y3064700D02*
Y2837200D01*
X10601500Y2789500D01*
X10633000Y2757800D01*
X10672400Y2747200D01*
X10711800Y2757800D01*
X10743300Y2789500D01*
X10759000Y2837200D01*
Y3064700D01*
G01X10896800Y2747200D02*
Y3064700D01*
X11077800Y2747200D01*
Y3064700D01*
G01X11255000D02*
X11349400D01*
G01X11302200D02*
Y2747200D01*
G01X11255000D02*
X11349400D01*
G01X11617100Y3064700D02*
Y2747200D01*
G01X11526600Y3064700D02*
X11707600D01*
G01X11849300Y2789500D02*
X11880800Y2763100D01*
X11916300Y2747200D01*
X11947700D01*
X11979200Y2763100D01*
X12002900Y2789500D01*
X12014700Y2826600D01*
X12006800Y2863600D01*
X11987100Y2895400D01*
X11951700Y2916500D01*
X11904400Y2927100D01*
X11876900Y2948300D01*
X11865100Y2985300D01*
X11873000Y3022400D01*
X11892600Y3048800D01*
X11920200Y3064700D01*
X11947700D01*
X11975300Y3054100D01*
X11998900Y3027700D01*
G01X12463400Y2747200D02*
X12561800Y3064700D01*
X12660200Y2747200D01*
G01X12624800Y2858300D02*
X12498800D01*
G01X12798000Y2747200D02*
Y3064700D01*
X12896400D01*
X12927900Y3048800D01*
X12947600Y3027700D01*
X12955400Y2985300D01*
X12947600Y2943000D01*
X12923900Y2916500D01*
X12896400Y2900700D01*
X12798000D01*
G01X12896400D02*
X12955400Y2747200D01*
G01X13270300D02*
X13112900D01*
Y3064700D01*
X13270300D01*
G01X13207300Y2911200D02*
X13112900D01*
G01X13774200Y3064700D02*
X13868600D01*
G01X13821400D02*
Y2747200D01*
G01X13774200D02*
X13868600D01*
G01X14045800D02*
Y3064700D01*
X14226800Y2747200D01*
Y3064700D01*
G01X14663700Y2747200D02*
Y3064700D01*
X14766100Y2800100D01*
X14868500Y3064700D01*
Y2747200D01*
G01X15033800Y3064700D02*
X15128200D01*
G01X15081000D02*
Y2747200D01*
G01X15033800D02*
X15128200D01*
G01X15317200Y3064700D02*
Y2747200D01*
X15474600D01*
G01X15632100Y3064700D02*
Y2747200D01*
X15789500D01*
G01X15978500Y3064700D02*
X16072900D01*
G01X16025700D02*
Y2747200D01*
G01X15978500D02*
X16072900D01*
G01X16238200D02*
Y3064700D01*
X16340600Y2800100D01*
X16443000Y3064700D01*
Y2747200D01*
G01X16734200D02*
X16576800D01*
Y3064700D01*
X16734200D01*
G01X16671200Y2911200D02*
X16576800D01*
G01X16970400Y3064700D02*
Y2747200D01*
G01X16879900Y3064700D02*
X17060900D01*
G01X17364000Y2747200D02*
X17206600D01*
Y3064700D01*
X17364000D01*
G01X17301000Y2911200D02*
X17206600D01*
G01X17521500Y2747200D02*
Y3064700D01*
X17619900D01*
X17651400Y3048800D01*
X17671100Y3027700D01*
X17678900Y2985300D01*
X17671100Y2943000D01*
X17647400Y2916500D01*
X17619900Y2900700D01*
X17521500D01*
G01X17619900D02*
X17678900Y2747200D01*
G01X17832400Y2789500D02*
X17863900Y2763100D01*
X17899400Y2747200D01*
X17930800D01*
X17962300Y2763100D01*
X17986000Y2789500D01*
X17997800Y2826600D01*
X17989900Y2863600D01*
X17970200Y2895400D01*
X17934800Y2916500D01*
X17887500Y2927100D01*
X17860000Y2948300D01*
X17848200Y2985300D01*
X17856100Y3022400D01*
X17875700Y3048800D01*
X17903300Y3064700D01*
X17930800D01*
X17958400Y3054100D01*
X17982000Y3027700D01*
G01X9649000Y2588500D02*
Y48500D01*
G01X10243300Y2112200D02*
Y2429700D01*
X10392900D01*
G01X10337800Y2276200D02*
X10243300D01*
G01X10585800Y2429700D02*
X10680200D01*
G01X10633000D02*
Y2112200D01*
G01X10585800D02*
X10680200D01*
G01X10857400D02*
Y2429700D01*
X11038400Y2112200D01*
Y2429700D01*
G01X11215600D02*
X11310000D01*
G01X11262800D02*
Y2112200D01*
G01X11215600D02*
X11310000D01*
G01X11495000Y2154500D02*
X11526500Y2128100D01*
X11562000Y2112200D01*
X11593400D01*
X11624900Y2128100D01*
X11648600Y2154500D01*
X11660400Y2191600D01*
X11652500Y2228600D01*
X11632800Y2260400D01*
X11597400Y2281500D01*
X11550100Y2292100D01*
X11522600Y2313300D01*
X11510800Y2350300D01*
X11518700Y2387400D01*
X11538300Y2413800D01*
X11565900Y2429700D01*
X11593400D01*
X11621000Y2419100D01*
X11644600Y2392700D01*
G01X11809900Y2112200D02*
Y2429700D01*
G01X11975300D02*
Y2112200D01*
G01Y2270900D02*
X11809900D01*
G01X12286200Y2112200D02*
X12128800D01*
Y2429700D01*
X12286200D01*
G01X12223200Y2276200D02*
X12128800D01*
G01X12435800Y2112200D02*
Y2429700D01*
X12514500D01*
X12546000Y2413800D01*
X12569600Y2392700D01*
X12589300Y2360900D01*
X12605100Y2323900D01*
X12609000Y2270900D01*
X12605100Y2218000D01*
X12589300Y2181000D01*
X12569600Y2149200D01*
X12546000Y2128100D01*
X12514500Y2112200D01*
X12435800D01*
G01X12719200Y2006400D02*
X12955400D01*
G01X13069500Y2154500D02*
X13101000Y2128100D01*
X13136500Y2112200D01*
X13167900D01*
X13199400Y2128100D01*
X13223100Y2154500D01*
X13234900Y2191600D01*
X13227000Y2228600D01*
X13207300Y2260400D01*
X13171900Y2281500D01*
X13124600Y2292100D01*
X13097100Y2313300D01*
X13085300Y2350300D01*
X13093200Y2387400D01*
X13112800Y2413800D01*
X13140400Y2429700D01*
X13167900D01*
X13195500Y2419100D01*
X13219100Y2392700D01*
G01X13419900Y2429700D02*
X13514300D01*
G01X13467100D02*
Y2112200D01*
G01X13419900D02*
X13514300D01*
G01X13707200Y2429700D02*
X13856800D01*
X13707200Y2112200D01*
X13856800D01*
G01X14175600D02*
X14018200D01*
Y2429700D01*
X14175600D01*
G01X14112600Y2276200D02*
X14018200D01*
G01X9641100Y3397200D02*
Y3714700D01*
X9719800D01*
X9751300Y3698800D01*
X9774900Y3677700D01*
X9794600Y3645900D01*
X9810400Y3608900D01*
X9814300Y3555900D01*
X9810400Y3503000D01*
X9794600Y3466000D01*
X9774900Y3434200D01*
X9751300Y3413100D01*
X9719800Y3397200D01*
X9641100D01*
G01X9963900D02*
Y3714700D01*
X10062300D01*
X10093800Y3698800D01*
X10113500Y3677700D01*
X10121300Y3635300D01*
X10113500Y3593000D01*
X10089800Y3566500D01*
X10062300Y3550700D01*
X9963900D01*
G01X10062300D02*
X10121300Y3397200D01*
G01X10310300Y3714700D02*
X10404700D01*
G01X10357500D02*
Y3397200D01*
G01X10310300D02*
X10404700D01*
G01X10593700Y3714700D02*
Y3397200D01*
X10751100D01*
G01X10908600Y3714700D02*
Y3397200D01*
X11066000D01*
G01X11703700Y3688200D02*
X11680100Y3704100D01*
X11652500Y3714700D01*
X11621000D01*
X11585600Y3698800D01*
X11558100Y3672400D01*
X11538400Y3640600D01*
X11522600Y3587700D01*
X11518700Y3540100D01*
X11526600Y3492400D01*
X11538400Y3460700D01*
X11562000Y3428900D01*
X11589500Y3407800D01*
X11617100Y3397200D01*
X11644700D01*
X11672200Y3407800D01*
X11695800Y3423700D01*
X11715500Y3444800D01*
G01X11849300Y3397200D02*
Y3714700D01*
G01X12014700D02*
Y3397200D01*
G01Y3555900D02*
X11849300D01*
G01X12148500Y3397200D02*
X12246900Y3714700D01*
X12345300Y3397200D01*
G01X12309900Y3508300D02*
X12183900D01*
G01X12483100Y3397200D02*
Y3714700D01*
X12581500D01*
X12613000Y3698800D01*
X12632700Y3677700D01*
X12640500Y3635300D01*
X12632700Y3593000D01*
X12609000Y3566500D01*
X12581500Y3550700D01*
X12483100D01*
G01X12581500D02*
X12640500Y3397200D01*
G01X12876700Y3714700D02*
Y3397200D01*
G01X12786200Y3714700D02*
X12967200D01*
G01X13191600Y3386600D02*
X13183700Y3391900D01*
Y3402500D01*
X13191600Y3407800D01*
X13199500Y3402500D01*
Y3391900D01*
X13191600Y3386600D01*
G01Y3529500D02*
X13183700Y3534800D01*
Y3545400D01*
X13191600Y3550700D01*
X13199500Y3545400D01*
Y3534800D01*
X13191600Y3529500D01*
G01X13821400Y3714700D02*
Y3397200D01*
G01X13730900Y3714700D02*
X13911900D01*
G01X14136300Y3397200D02*
X14104800Y3402500D01*
X14077300Y3423700D01*
X14053600Y3455400D01*
X14037900Y3492400D01*
X14030000Y3534800D01*
Y3577100D01*
X14037900Y3619500D01*
X14053600Y3656500D01*
X14077300Y3688200D01*
X14104800Y3709400D01*
X14136300Y3714700D01*
X14167800Y3709400D01*
X14195300Y3688200D01*
X14219000Y3656500D01*
X14234700Y3619500D01*
X14242600Y3577100D01*
Y3534800D01*
X14234700Y3492400D01*
X14219000Y3455400D01*
X14195300Y3423700D01*
X14167800Y3402500D01*
X14136300Y3397200D01*
G01X14372500D02*
Y3714700D01*
X14466900D01*
X14498400Y3698800D01*
X14522100Y3661800D01*
X14529900Y3619500D01*
X14522100Y3577100D01*
X14502400Y3545400D01*
X14466900Y3529500D01*
X14372500D01*
G01X15081000Y3714700D02*
Y3397200D01*
G01X15025900Y3608900D02*
X15136100D01*
G01X15395900Y3397200D02*
X15372300Y3402500D01*
X15348700Y3423700D01*
X15332900Y3460700D01*
X15325000Y3503000D01*
X15332900Y3545400D01*
X15348700Y3582400D01*
X15372300Y3603600D01*
X15395900Y3608900D01*
X15419500Y3603600D01*
X15443100Y3582400D01*
X15458900Y3545400D01*
X15462800Y3503000D01*
X15458900Y3460700D01*
X15443100Y3423700D01*
X15419500Y3402500D01*
X15395900Y3397200D01*
G01X16057200Y3566500D02*
X16072900Y3582400D01*
X16084700Y3608900D01*
X16092600Y3645900D01*
X16084700Y3677700D01*
X16069000Y3698800D01*
X16041400Y3714700D01*
X15935200D01*
Y3397200D01*
X16065100D01*
X16092600Y3418400D01*
X16108400Y3450100D01*
X16116200Y3487200D01*
X16108400Y3524200D01*
X16084700Y3555900D01*
X16057200Y3566500D01*
X15935200D01*
G01X16340600Y3397200D02*
X16309100Y3402500D01*
X16281600Y3423700D01*
X16257900Y3455400D01*
X16242200Y3492400D01*
X16234300Y3534800D01*
Y3577100D01*
X16242200Y3619500D01*
X16257900Y3656500D01*
X16281600Y3688200D01*
X16309100Y3709400D01*
X16340600Y3714700D01*
X16372100Y3709400D01*
X16399600Y3688200D01*
X16423300Y3656500D01*
X16439000Y3619500D01*
X16446900Y3577100D01*
Y3534800D01*
X16439000Y3492400D01*
X16423300Y3455400D01*
X16399600Y3423700D01*
X16372100Y3402500D01*
X16340600Y3397200D01*
G01X16655500Y3714700D02*
Y3397200D01*
G01X16565000Y3714700D02*
X16746000D01*
G01X16970400D02*
Y3397200D01*
G01X16879900Y3714700D02*
X17060900D01*
G01X17285300Y3397200D02*
X17253800Y3402500D01*
X17226300Y3423700D01*
X17202600Y3455400D01*
X17186900Y3492400D01*
X17179000Y3534800D01*
Y3577100D01*
X17186900Y3619500D01*
X17202600Y3656500D01*
X17226300Y3688200D01*
X17253800Y3709400D01*
X17285300Y3714700D01*
X17316800Y3709400D01*
X17344300Y3688200D01*
X17368000Y3656500D01*
X17383700Y3619500D01*
X17391600Y3577100D01*
Y3534800D01*
X17383700Y3492400D01*
X17368000Y3455400D01*
X17344300Y3423700D01*
X17316800Y3402500D01*
X17285300Y3397200D01*
G01X17497800D02*
Y3714700D01*
X17600200Y3450100D01*
X17702600Y3714700D01*
Y3397200D01*
G01X11491100Y270700D02*
X11514700Y233700D01*
X11546200Y212500D01*
X11581600Y207200D01*
X11613100Y212500D01*
X11644600Y238900D01*
X11664300Y270700D01*
X11668200Y302400D01*
X11660400Y339500D01*
X11632800Y365900D01*
X11605300Y376500D01*
X11569800D01*
G01X11605300D02*
X11628900Y392400D01*
X11648600Y418900D01*
X11656400Y450600D01*
X11648600Y482400D01*
X11628900Y508800D01*
X11593400Y524700D01*
X11558000Y519400D01*
X11522600Y498200D01*
G01X11892600Y196600D02*
X11884700Y201900D01*
Y212500D01*
X11892600Y217800D01*
X11900500Y212500D01*
Y201900D01*
X11892600Y196600D01*
G01X12207500Y207200D02*
Y524700D01*
X12160300Y461200D01*
G01Y207200D02*
X12254700D01*
G01X12514500D02*
X12522400Y276000D01*
X12534200Y334200D01*
X12550000Y387100D01*
X12569600Y445300D01*
X12601100Y524700D01*
X12443700D01*
G01X12750700Y254800D02*
X12774300Y228400D01*
X12801900Y212500D01*
X12837300Y207200D01*
X12872700Y217800D01*
X12900300Y238900D01*
X12920000Y276000D01*
X12923900Y318300D01*
X12916000Y360700D01*
X12896300Y387100D01*
X12868800Y408300D01*
X12841200Y413600D01*
X12813700Y408300D01*
X12778300Y387100D01*
X12790100Y524700D01*
X12896300D01*
G01X11577700Y842200D02*
Y1159700D01*
X11530500Y1096200D01*
G01Y842200D02*
X11624900D01*
G01X11892600Y831600D02*
X11884700Y836900D01*
Y847500D01*
X11892600Y852800D01*
X11900500Y847500D01*
Y836900D01*
X11892600Y831600D01*
G01X12207500Y1159700D02*
X12176000Y1149100D01*
X12152400Y1122700D01*
X12136600Y1090900D01*
X12124800Y1048600D01*
X12120900Y1000900D01*
X12124800Y953300D01*
X12136600Y911000D01*
X12152400Y879200D01*
X12176000Y852800D01*
X12207500Y842200D01*
X12239000Y852800D01*
X12262600Y879200D01*
X12278400Y911000D01*
X12290200Y953300D01*
X12294100Y1000900D01*
X12290200Y1048600D01*
X12278400Y1090900D01*
X12262600Y1122700D01*
X12239000Y1149100D01*
X12207500Y1159700D01*
G01X12447600Y974500D02*
X12475200Y1011500D01*
X12498800Y1032700D01*
X12530300Y1043300D01*
X12557800Y1032700D01*
X12577500Y1011500D01*
X12593300Y979800D01*
X12597200Y942700D01*
X12593300Y911000D01*
X12577500Y879200D01*
X12553900Y852800D01*
X12526300Y842200D01*
X12494800Y852800D01*
X12467300Y884500D01*
X12451500Y932200D01*
X12447600Y985100D01*
X12455500Y1053900D01*
X12467300Y1090900D01*
X12487000Y1127900D01*
X12514500Y1154400D01*
X12542100Y1159700D01*
X12569600Y1149100D01*
X12589300Y1122700D01*
G01X12829400Y842200D02*
X12837300Y911000D01*
X12849100Y969200D01*
X12864900Y1022100D01*
X12884500Y1080300D01*
X12916000Y1159700D01*
X12758600D01*
G01X11577700Y1794700D02*
X11546200Y1784100D01*
X11522600Y1757700D01*
X11506800Y1725900D01*
X11495000Y1683600D01*
X11491100Y1635900D01*
X11495000Y1588300D01*
X11506800Y1546000D01*
X11522600Y1514200D01*
X11546200Y1487800D01*
X11577700Y1477200D01*
X11609200Y1487800D01*
X11632800Y1514200D01*
X11648600Y1546000D01*
X11660400Y1588300D01*
X11664300Y1635900D01*
X11660400Y1683600D01*
X11648600Y1725900D01*
X11632800Y1757700D01*
X11609200Y1784100D01*
X11577700Y1794700D01*
G01X11892600Y1466600D02*
X11884700Y1471900D01*
Y1482500D01*
X11892600Y1487800D01*
X11900500Y1482500D01*
Y1471900D01*
X11892600Y1466600D01*
G01X12140600Y1514200D02*
X12168100Y1487800D01*
X12199600Y1477200D01*
X12231100Y1487800D01*
X12258700Y1519500D01*
X12278400Y1567200D01*
X12286200Y1614800D01*
Y1673000D01*
X12278400Y1720600D01*
X12258700Y1762900D01*
X12235100Y1784100D01*
X12207500Y1794700D01*
X12176000Y1784100D01*
X12152400Y1762900D01*
X12136600Y1731200D01*
X12128800Y1688900D01*
X12136600Y1651800D01*
X12156300Y1614800D01*
X12179900Y1593600D01*
X12207500Y1588300D01*
X12239000Y1598900D01*
X12262600Y1625400D01*
X12286200Y1673000D01*
G01X12522400Y1477200D02*
Y1794700D01*
X12475200Y1731200D01*
G01Y1477200D02*
X12569600D01*
G01X12884500D02*
Y1794700D01*
X12738900Y1567200D01*
X12935700D01*
G01X14766100Y2588500D02*
Y48500D01*
G01X14872400Y207200D02*
Y524700D01*
X15053400Y207200D01*
Y524700D01*
G01X15277800Y207200D02*
X15246300Y212500D01*
X15218800Y233700D01*
X15195100Y265400D01*
X15179400Y302400D01*
X15171500Y344800D01*
Y387100D01*
X15179400Y429500D01*
X15195100Y466500D01*
X15218800Y498200D01*
X15246300Y519400D01*
X15277800Y524700D01*
X15309300Y519400D01*
X15336800Y498200D01*
X15360500Y466500D01*
X15376200Y429500D01*
X15384100Y387100D01*
Y344800D01*
X15376200Y302400D01*
X15360500Y265400D01*
X15336800Y233700D01*
X15309300Y212500D01*
X15277800Y207200D01*
G01X15502200D02*
Y524700D01*
X15683200Y207200D01*
Y524700D01*
G01X15856400Y313000D02*
X15958800D01*
G01X16143800Y207200D02*
Y524700D01*
X16238200D01*
X16269700Y508800D01*
X16293400Y471800D01*
X16301200Y429500D01*
X16293400Y387100D01*
X16273700Y355400D01*
X16238200Y339500D01*
X16143800D01*
G01X16458700Y524700D02*
Y207200D01*
X16616100D01*
G01X16753900D02*
X16852300Y524700D01*
X16950700Y207200D01*
G01X16915300Y318300D02*
X16789300D01*
G01X17167200Y524700D02*
Y207200D01*
G01X17076700Y524700D02*
X17257700D01*
G01X17560800Y207200D02*
X17403400D01*
Y524700D01*
X17560800D01*
G01X17497800Y371200D02*
X17403400D01*
G01X17710400Y207200D02*
Y524700D01*
X17789100D01*
X17820600Y508800D01*
X17844200Y487700D01*
X17863900Y455900D01*
X17879700Y418900D01*
X17883600Y365900D01*
X17879700Y313000D01*
X17863900Y276000D01*
X17844200Y244200D01*
X17820600Y223100D01*
X17789100Y207200D01*
X17710400D01*
G01X15514000Y842200D02*
Y1159700D01*
X15608400D01*
X15639900Y1143800D01*
X15663600Y1106800D01*
X15671400Y1064500D01*
X15663600Y1022100D01*
X15643900Y990400D01*
X15608400Y974500D01*
X15514000D01*
G01X15828900Y1159700D02*
Y842200D01*
X15986300D01*
G01X16124100D02*
X16222500Y1159700D01*
X16320900Y842200D01*
G01X16285500Y953300D02*
X16159500D01*
G01X16537400Y1159700D02*
Y842200D01*
G01X16446900Y1159700D02*
X16627900D01*
G01X16931000Y842200D02*
X16773600D01*
Y1159700D01*
X16931000D01*
G01X16868000Y1006200D02*
X16773600D01*
G01X17080600Y842200D02*
Y1159700D01*
X17159300D01*
X17190800Y1143800D01*
X17214400Y1122700D01*
X17234100Y1090900D01*
X17249900Y1053900D01*
X17253800Y1000900D01*
X17249900Y948000D01*
X17234100Y911000D01*
X17214400Y879200D01*
X17190800Y858100D01*
X17159300Y842200D01*
X17080600D01*
G01X15514000Y1477200D02*
Y1794700D01*
X15608400D01*
X15639900Y1778800D01*
X15663600Y1741800D01*
X15671400Y1699500D01*
X15663600Y1657100D01*
X15643900Y1625400D01*
X15608400Y1609500D01*
X15514000D01*
G01X15828900Y1794700D02*
Y1477200D01*
X15986300D01*
G01X16124100D02*
X16222500Y1794700D01*
X16320900Y1477200D01*
G01X16285500Y1588300D02*
X16159500D01*
G01X16537400Y1794700D02*
Y1477200D01*
G01X16446900Y1794700D02*
X16627900D01*
G01X16931000Y1477200D02*
X16773600D01*
Y1794700D01*
X16931000D01*
G01X16868000Y1641200D02*
X16773600D01*
G01X17080600Y1477200D02*
Y1794700D01*
X17159300D01*
X17190800Y1778800D01*
X17214400Y1757700D01*
X17234100Y1725900D01*
X17249900Y1688900D01*
X17253800Y1635900D01*
X17249900Y1583000D01*
X17234100Y1546000D01*
X17214400Y1514200D01*
X17190800Y1493100D01*
X17159300Y1477200D01*
X17080600D01*
G01X15514000Y2112200D02*
Y2429700D01*
X15608400D01*
X15639900Y2413800D01*
X15663600Y2376800D01*
X15671400Y2334500D01*
X15663600Y2292100D01*
X15643900Y2260400D01*
X15608400Y2244500D01*
X15514000D01*
G01X15828900Y2429700D02*
Y2112200D01*
X15986300D01*
G01X16124100D02*
X16222500Y2429700D01*
X16320900Y2112200D01*
G01X16285500Y2223300D02*
X16159500D01*
G01X16537400Y2429700D02*
Y2112200D01*
G01X16446900Y2429700D02*
X16627900D01*
G01X16931000Y2112200D02*
X16773600D01*
Y2429700D01*
X16931000D01*
G01X16868000Y2276200D02*
X16773600D01*
G01X17080600Y2112200D02*
Y2429700D01*
X17159300D01*
X17190800Y2413800D01*
X17214400Y2392700D01*
X17234100Y2360900D01*
X17249900Y2323900D01*
X17253800Y2270900D01*
X17249900Y2218000D01*
X17234100Y2181000D01*
X17214400Y2149200D01*
X17190800Y2128100D01*
X17159300Y2112200D01*
X17080600D01*
G01X17993800Y2588500D02*
Y48500D01*
G01X18662900Y2112200D02*
X18631400Y2117500D01*
X18603900Y2138700D01*
X18580200Y2170400D01*
X18564500Y2207400D01*
X18556600Y2249800D01*
Y2292100D01*
X18564500Y2334500D01*
X18580200Y2371500D01*
X18603900Y2403200D01*
X18631400Y2424400D01*
X18662900Y2429700D01*
X18694400Y2424400D01*
X18721900Y2403200D01*
X18745600Y2371500D01*
X18761300Y2334500D01*
X18769200Y2292100D01*
Y2249800D01*
X18761300Y2207400D01*
X18745600Y2170400D01*
X18721900Y2138700D01*
X18694400Y2117500D01*
X18662900Y2112200D01*
G01X18694400Y2196900D02*
X18741600Y2112200D01*
G01X18977800Y2429700D02*
Y2112200D01*
G01X18887300Y2429700D02*
X19068300D01*
G01X19292700Y2112200D02*
Y2255100D01*
X19214000Y2429700D01*
G01X19371400D02*
X19292700Y2255100D01*
G01X19025000Y207200D02*
Y524700D01*
X18879400Y297200D01*
X19076200D01*
G01X19025000Y842200D02*
Y1159700D01*
X18879400Y932200D01*
X19076200D01*
G01X19025000Y1477200D02*
Y1794700D01*
X18879400Y1567200D01*
X19076200D01*
M02*
